<?xml version="1.0" standalone="no"?>
<!DOCTYPE svg PUBLIC "-//W3C//DTD SVG 20010904//EN"
 "http://www.w3.org/TR/2001/REC-SVG-20010904/DTD/svg10.dtd">
<svg version="1.0" xmlns="http://www.w3.org/2000/svg"
 width="74.000000pt" height="87.000000pt" viewBox="0 0 74.000000 87.000000"
 preserveAspectRatio="xMidYMid meet">
<metadata>
Created by potrace 1.16, written by Peter Selinger 2001-2019
</metadata>
<g transform="translate(0.000000,87.000000) scale(0.100000,-0.100000)"
fill="#000000" stroke="none">
<path d="M298 567 c-38 -17 -67 -45 -100 -96 -23 -37 -28 -56 -28 -109 0 -37
6 -75 14 -90 8 -15 17 -43 20 -62 12 -74 69 -127 153 -143 94 -18 323 76 323
132 0 35 -31 31 -133 -19 -159 -76 -198 -76 -237 0 -28 55 -26 75 10 90 43 18
76 62 97 128 9 31 23 61 30 65 24 15 14 57 -19 88 -35 32 -81 37 -130 16z m67
-76 c8 -13 -23 -89 -52 -129 -20 -26 -28 -31 -39 -21 -27 22 -17 76 22 119 36
39 57 49 69 31z"/>
</g>
</svg>
