<?xml version="1.0" standalone="no"?>
<!DOCTYPE svg PUBLIC "-//W3C//DTD SVG 20010904//EN"
 "http://www.w3.org/TR/2001/REC-SVG-20010904/DTD/svg10.dtd">
<svg version="1.0" xmlns="http://www.w3.org/2000/svg"
 width="64.000000pt" height="87.000000pt" viewBox="0 0 64.000000 87.000000"
 preserveAspectRatio="xMidYMid meet">
<metadata>
Created by potrace 1.16, written by Peter Selinger 2001-2019
</metadata>
<g transform="translate(0.000000,87.000000) scale(0.100000,-0.100000)"
fill="#000000" stroke="none">
<path d="M350 692 c-53 -26 -93 -100 -98 -179 -4 -62 -6 -66 -39 -85 -27 -16
-31 -23 -22 -34 6 -8 17 -14 24 -14 18 0 42 -31 51 -65 4 -16 13 -39 21 -51 7
-11 18 -47 24 -80 17 -97 15 -94 70 -94 l49 0 0 39 c0 22 -4 42 -8 45 -10 6
-57 154 -51 161 3 2 29 8 59 12 105 15 88 73 -21 73 -43 0 -58 4 -63 16 -9 24
-7 81 5 129 12 46 33 61 94 67 62 6 30 78 -35 78 -14 0 -41 -8 -60 -18z"/>
</g>
</svg>
