<?xml version="1.0" standalone="no"?>
<!DOCTYPE svg PUBLIC "-//W3C//DTD SVG 20010904//EN"
 "http://www.w3.org/TR/2001/REC-SVG-20010904/DTD/svg10.dtd">
<svg version="1.0" xmlns="http://www.w3.org/2000/svg"
 width="77.000000pt" height="129.000000pt" viewBox="0 0 77.000000 129.000000"
 preserveAspectRatio="xMidYMid meet">
<metadata>
Created by potrace 1.16, written by Peter Selinger 2001-2019
</metadata>
<g transform="translate(0.000000,129.000000) scale(0.100000,-0.100000)"
fill="#000000" stroke="none">
<path d="M140 1083 c-19 -13 -21 -22 -16 -57 6 -42 31 -164 46 -226 26 -107
51 -244 56 -310 9 -101 37 -130 95 -99 18 9 19 17 13 95 -10 120 8 196 54 234
28 23 39 27 56 19 24 -11 62 -104 91 -224 46 -188 48 -195 70 -195 28 0 65 27
65 48 0 28 -86 315 -108 360 -22 47 -77 92 -111 92 -40 0 -120 -26 -143 -46
-16 -16 -21 -16 -29 -4 -5 8 -11 24 -13 35 -5 26 -46 212 -54 249 -9 37 -42
50 -72 29z"/>
</g>
</svg>
