<?xml version="1.0" standalone="no"?>
<!DOCTYPE svg PUBLIC "-//W3C//DTD SVG 20010904//EN"
 "http://www.w3.org/TR/2001/REC-SVG-20010904/DTD/svg10.dtd">
<svg version="1.0" xmlns="http://www.w3.org/2000/svg"
 width="56.000000pt" height="129.000000pt" viewBox="0 0 56.000000 129.000000"
 preserveAspectRatio="xMidYMid meet">
<metadata>
Created by potrace 1.16, written by Peter Selinger 2001-2019
</metadata>
<g transform="translate(0.000000,129.000000) scale(0.100000,-0.100000)"
fill="#000000" stroke="none">
<path d="M232 1148 c-7 -7 -12 -24 -12 -39 0 -20 9 -32 36 -48 46 -28 62 -26
74 5 18 46 12 64 -25 80 -42 17 -57 18 -73 2z"/>
<path d="M226 872 c-7 -11 -1 -112 13 -237 6 -55 13 -130 17 -168 7 -79 23
-102 67 -93 17 3 32 8 34 10 4 4 -10 145 -31 319 -18 144 -31 177 -68 177 -15
0 -29 -4 -32 -8z"/>
</g>
</svg>
