<?xml version="1.0" standalone="no"?>
<!DOCTYPE svg PUBLIC "-//W3C//DTD SVG 20010904//EN"
 "http://www.w3.org/TR/2001/REC-SVG-20010904/DTD/svg10.dtd">
<svg version="1.0" xmlns="http://www.w3.org/2000/svg"
 width="83.000000pt" height="129.000000pt" viewBox="0 0 83.000000 129.000000"
 preserveAspectRatio="xMidYMid meet">
<metadata>
Created by potrace 1.16, written by Peter Selinger 2001-2019
</metadata>
<g transform="translate(0.000000,129.000000) scale(0.100000,-0.100000)"
fill="#000000" stroke="none">
<path d="M172 1135 c-7 -14 0 -82 28 -260 5 -33 14 -102 19 -154 5 -52 15 -99
20 -104 6 -6 11 -41 11 -79 0 -73 11 -88 64 -88 23 0 26 4 26 33 0 55 -22 201
-33 215 -7 9 -7 16 1 24 8 8 16 1 28 -26 11 -23 37 -49 68 -69 28 -17 64 -44
81 -58 16 -14 44 -33 60 -42 17 -9 41 -22 53 -29 20 -10 29 -9 50 2 44 25 40
30 -107 119 -22 13 -57 41 -78 62 -33 32 -38 43 -38 83 0 42 2 45 23 39 16 -4
22 -1 22 10 0 9 16 33 35 54 19 21 35 43 35 50 0 16 -33 25 -57 16 -24 -10
-122 -119 -134 -150 -10 -27 -35 -30 -47 -5 -5 9 -13 40 -17 67 -4 28 -9 61
-11 75 -2 14 -7 53 -10 87 -5 47 -10 60 -20 56 -17 -6 -19 18 -2 35 9 9 7 16
-7 32 -22 24 -51 26 -63 5z"/>
</g>
</svg>
