<?xml version="1.0" standalone="no"?>
<!DOCTYPE svg PUBLIC "-//W3C//DTD SVG 20010904//EN"
 "http://www.w3.org/TR/2001/REC-SVG-20010904/DTD/svg10.dtd">
<svg version="1.0" xmlns="http://www.w3.org/2000/svg"
 width="93.000000pt" height="115.000000pt" viewBox="0 0 93.000000 115.000000"
 preserveAspectRatio="xMidYMid meet">
<metadata>
Created by potrace 1.16, written by Peter Selinger 2001-2019
</metadata>
<g transform="translate(0.000000,115.000000) scale(0.100000,-0.100000)"
fill="#000000" stroke="none">
<path d="M255 867 c-43 -20 -77 -75 -86 -139 -5 -35 -12 -77 -15 -95 -4 -23 0
-42 15 -66 36 -59 56 -71 116 -69 l55 1 0 -32 c0 -18 6 -52 14 -77 8 -25 22
-83 31 -129 27 -135 85 -210 162 -211 118 -1 303 157 274 233 -10 26 -43 43
-61 32 -5 -3 -10 -17 -10 -30 0 -16 -17 -40 -48 -69 -62 -58 -138 -116 -151
-116 -18 0 -56 71 -79 144 -41 130 -53 422 -23 550 6 22 6 48 1 61 -8 21 -15
23 -92 22 -46 0 -92 -4 -103 -10z m95 -74 c-1 -41 -21 -127 -33 -139 -4 -4 -7
-14 -7 -21 0 -19 -41 -73 -56 -73 -30 0 -32 86 -3 173 24 73 43 97 76 97 20 0
23 -5 23 -37z"/>
</g>
</svg>
