<?xml version="1.0" standalone="no"?>
<!DOCTYPE svg PUBLIC "-//W3C//DTD SVG 20010904//EN"
 "http://www.w3.org/TR/2001/REC-SVG-20010904/DTD/svg10.dtd">
<svg version="1.0" xmlns="http://www.w3.org/2000/svg"
 width="87.000000pt" height="115.000000pt" viewBox="0 0 87.000000 115.000000"
 preserveAspectRatio="xMidYMid meet">
<metadata>
Created by potrace 1.16, written by Peter Selinger 2001-2019
</metadata>
<g transform="translate(0.000000,115.000000) scale(0.100000,-0.100000)"
fill="#000000" stroke="none">
<path d="M455 1058 c-112 -12 -150 -24 -191 -60 -33 -29 -34 -33 -28 -77 10
-78 59 -221 86 -257 15 -18 29 -24 59 -24 36 0 39 2 39 29 0 16 -7 48 -16 72
-9 24 -20 60 -24 79 -4 19 -15 56 -23 83 l-15 48 39 19 c24 13 68 22 116 26
43 3 89 8 102 10 l24 5 -24 24 c-32 31 -50 34 -144 23z"/>
</g>
</svg>
