<?xml version="1.0" standalone="no"?>
<!DOCTYPE svg PUBLIC "-//W3C//DTD SVG 20010904//EN"
 "http://www.w3.org/TR/2001/REC-SVG-20010904/DTD/svg10.dtd">
<svg version="1.0" xmlns="http://www.w3.org/2000/svg"
 width="70.000000pt" height="115.000000pt" viewBox="0 0 70.000000 115.000000"
 preserveAspectRatio="xMidYMid meet">
<metadata>
Created by potrace 1.16, written by Peter Selinger 2001-2019
</metadata>
<g transform="translate(0.000000,115.000000) scale(0.100000,-0.100000)"
fill="#000000" stroke="none">
<path d="M192 958 c-5 -7 -15 -48 -22 -91 -11 -75 -10 -82 15 -155 35 -98 45
-114 100 -152 37 -25 57 -32 100 -33 67 -1 92 19 137 110 28 58 30 68 24 132
-11 107 -49 171 -92 154 -13 -5 -14 -21 -9 -107 5 -89 3 -109 -17 -166 -22
-62 -24 -65 -53 -62 -39 5 -51 15 -75 68 -11 24 -30 65 -41 90 -17 35 -20 55
-14 87 4 23 9 56 12 74 8 49 -37 84 -65 51z"/>
</g>
</svg>
