<?xml version="1.0" standalone="no"?>
<!DOCTYPE svg PUBLIC "-//W3C//DTD SVG 20010904//EN"
 "http://www.w3.org/TR/2001/REC-SVG-20010904/DTD/svg10.dtd">
<svg version="1.0" xmlns="http://www.w3.org/2000/svg"
 width="74.000000pt" height="115.000000pt" viewBox="0 0 74.000000 115.000000"
 preserveAspectRatio="xMidYMid meet">
<metadata>
Created by potrace 1.16, written by Peter Selinger 2001-2019
</metadata>
<g transform="translate(0.000000,115.000000) scale(0.100000,-0.100000)"
fill="#000000" stroke="none">
<path d="M214 928 c3 -13 9 -48 13 -78 4 -33 24 -92 50 -147 23 -50 43 -95 43
-100 1 -14 44 -60 63 -66 22 -8 107 77 107 107 0 11 13 47 29 80 49 102 81
176 81 186 0 6 -16 10 -35 10 -32 0 -37 -5 -73 -67 -22 -38 -48 -89 -57 -115
-25 -67 -42 -79 -66 -48 -10 14 -19 31 -19 38 0 22 -32 112 -41 118 -5 3 -9
16 -9 28 0 34 -37 76 -67 76 -21 0 -24 -3 -19 -22z"/>
</g>
</svg>
