<?xml version="1.0" standalone="no"?>
<!DOCTYPE svg PUBLIC "-//W3C//DTD SVG 20010904//EN"
 "http://www.w3.org/TR/2001/REC-SVG-20010904/DTD/svg10.dtd">
<svg version="1.0" xmlns="http://www.w3.org/2000/svg"
 width="73.000000pt" height="115.000000pt" viewBox="0 0 73.000000 115.000000"
 preserveAspectRatio="xMidYMid meet">
<metadata>
Created by potrace 1.16, written by Peter Selinger 2001-2019
</metadata>
<g transform="translate(0.000000,115.000000) scale(0.100000,-0.100000)"
fill="#000000" stroke="none">
<path d="M250 875 c-13 -15 -6 -50 15 -75 7 -8 18 -32 24 -54 5 -21 17 -46 26
-56 9 -10 18 -33 21 -52 5 -29 -1 -47 -35 -103 -23 -38 -40 -74 -37 -82 10
-24 45 -13 73 22 36 46 61 44 95 -5 15 -22 39 -42 53 -46 28 -7 55 10 55 33 0
24 -71 133 -87 133 -10 0 -7 12 12 43 14 24 25 50 25 57 0 7 11 23 25 36 30
27 34 64 7 64 -10 0 -36 -18 -57 -40 -21 -22 -44 -40 -50 -40 -13 0 -40 45
-48 80 -8 31 -69 100 -90 100 -8 0 -20 -7 -27 -15z"/>
</g>
</svg>
