<?xml version="1.0" standalone="no"?>
<!DOCTYPE svg PUBLIC "-//W3C//DTD SVG 20010904//EN"
 "http://www.w3.org/TR/2001/REC-SVG-20010904/DTD/svg10.dtd">
<svg version="1.0" xmlns="http://www.w3.org/2000/svg"
 width="59.000000pt" height="106.000000pt" viewBox="0 0 59.000000 106.000000"
 preserveAspectRatio="xMidYMid meet">
<metadata>
Created by potrace 1.16, written by Peter Selinger 2001-2019
</metadata>
<g transform="translate(0.000000,106.000000) scale(0.100000,-0.100000)"
fill="#000000" stroke="none">
<path d="M0 918 c0 -52 24 -135 45 -159 33 -35 30 -80 -9 -146 -20 -34 -36
-71 -36 -82 0 -33 35 -26 67 14 36 46 61 44 95 -5 15 -22 39 -42 53 -46 28 -7
55 10 55 33 0 24 -71 133 -87 133 -10 0 -7 12 12 43 14 24 25 50 25 57 0 7 11
23 25 36 30 27 34 64 7 64 -10 0 -36 -18 -57 -40 -21 -22 -44 -40 -50 -40 -13
0 -40 45 -48 80 -7 28 -68 100 -86 100 -6 0 -11 -18 -11 -42z"/>
</g>
</svg>
