<?xml version="1.0" standalone="no"?>
<!DOCTYPE svg PUBLIC "-//W3C//DTD SVG 20010904//EN"
 "http://www.w3.org/TR/2001/REC-SVG-20010904/DTD/svg10.dtd">
<svg version="1.0" xmlns="http://www.w3.org/2000/svg"
 width="88.000000pt" height="97.000000pt" viewBox="0 0 88.000000 97.000000"
 preserveAspectRatio="xMidYMid meet">
<metadata>
Created by potrace 1.16, written by Peter Selinger 2001-2019
</metadata>
<g transform="translate(0.000000,97.000000) scale(0.100000,-0.100000)"
fill="#000000" stroke="none">
<path d="M371 869 c-13 -5 -60 -13 -105 -17 -72 -6 -81 -9 -81 -27 0 -16 9
-21 50 -27 56 -9 154 -1 172 14 6 5 24 8 40 6 25 -3 28 -7 26 -36 0 -20 -21
-66 -52 -117 -54 -88 -103 -143 -152 -172 -36 -21 -35 -52 1 -70 53 -27 263
-8 306 28 8 7 33 8 66 4 44 -5 57 -4 68 10 21 25 -2 39 -74 43 -40 3 -84 -2
-119 -12 -62 -18 -123 -21 -132 -6 -3 5 17 32 45 61 27 28 50 57 50 64 0 7 17
31 38 53 77 80 81 152 13 190 -41 23 -116 29 -160 11z"/>
</g>
</svg>
