<?xml version="1.0" standalone="no"?>
<!DOCTYPE svg PUBLIC "-//W3C//DTD SVG 20010904//EN"
 "http://www.w3.org/TR/2001/REC-SVG-20010904/DTD/svg10.dtd">
<svg version="1.0" xmlns="http://www.w3.org/2000/svg"
 width="88.000000pt" height="112.000000pt" viewBox="0 0 88.000000 112.000000"
 preserveAspectRatio="xMidYMid meet">
<metadata>
Created by potrace 1.16, written by Peter Selinger 2001-2019
</metadata>
<g transform="translate(0.000000,112.000000) scale(0.100000,-0.100000)"
fill="#000000" stroke="none">
<path d="M415 931 c-55 -10 -104 -38 -140 -79 -16 -19 -40 -38 -52 -43 -21 -8
-23 -15 -23 -85 0 -65 32 -263 46 -286 7 -10 32 -133 48 -235 14 -87 27 -113
57 -113 10 0 32 -14 49 -30 69 -67 210 -22 280 89 8 13 25 36 38 51 12 15 22
35 22 43 0 8 7 21 17 28 23 20 43 72 43 116 0 53 -45 106 -107 127 -25 9 -54
16 -64 16 -28 0 -32 17 -14 65 24 60 13 242 -16 279 -35 45 -113 69 -184 57z
m135 -86 c15 -9 12 -170 -4 -208 -21 -50 -96 -120 -149 -141 -37 -14 -47 -23
-47 -40 0 -13 9 -31 20 -41 22 -20 46 -17 130 14 85 31 214 26 225 -10 11 -33
-71 -186 -132 -247 -28 -28 -106 -62 -141 -62 -64 0 -68 5 -87 108 -10 53 -28
134 -41 179 -31 111 -58 276 -50 309 8 29 103 129 138 144 23 10 119 7 138 -5z"/>
</g>
</svg>
