<?xml version="1.0" standalone="no"?>
<!DOCTYPE svg PUBLIC "-//W3C//DTD SVG 20010904//EN"
 "http://www.w3.org/TR/2001/REC-SVG-20010904/DTD/svg10.dtd">
<svg version="1.0" xmlns="http://www.w3.org/2000/svg"
 width="74.000000pt" height="111.000000pt" viewBox="0 0 74.000000 111.000000"
 preserveAspectRatio="xMidYMid meet">
<metadata>
Created by potrace 1.16, written by Peter Selinger 2001-2019
</metadata>
<g transform="translate(0.000000,111.000000) scale(0.100000,-0.100000)"
fill="#000000" stroke="none">
<path d="M235 991 c-47 -7 -52 -25 -14 -53 24 -18 30 -19 110 -5 46 8 95 14
109 13 20 -1 25 4 25 24 0 25 -1 25 -95 26 -52 1 -113 -1 -135 -5z"/>
<path d="M161 868 c0 -35 5 -99 10 -143 15 -115 26 -210 34 -290 7 -69 25
-105 52 -105 7 0 13 -3 13 -7 0 -5 12 -16 26 -27 22 -15 42 -18 118 -17 86 2
92 4 113 29 27 32 27 85 1 90 -9 2 -19 -5 -23 -17 -3 -10 -13 -22 -21 -25 -21
-8 -180 -9 -193 -1 -6 3 -11 25 -11 48 0 23 -5 60 -9 82 -5 22 -11 62 -13 89
l-3 50 65 12 c74 14 148 40 170 61 36 34 -72 60 -114 28 -25 -19 -135 -21
-140 -2 -2 6 -9 46 -16 87 -14 92 -25 120 -45 120 -12 0 -15 -13 -14 -62z"/>
</g>
</svg>
