<?xml version="1.0" standalone="no"?>
<!DOCTYPE svg PUBLIC "-//W3C//DTD SVG 20010904//EN"
 "http://www.w3.org/TR/2001/REC-SVG-20010904/DTD/svg10.dtd">
<svg version="1.0" xmlns="http://www.w3.org/2000/svg"
 width="74.000000pt" height="111.000000pt" viewBox="0 0 74.000000 111.000000"
 preserveAspectRatio="xMidYMid meet">
<metadata>
Created by potrace 1.16, written by Peter Selinger 2001-2019
</metadata>
<g transform="translate(0.000000,111.000000) scale(0.100000,-0.100000)"
fill="#000000" stroke="none">
<path d="M471 972 c-7 -13 -37 -22 -117 -35 -59 -10 -118 -23 -131 -28 -25 -9
-25 -17 -3 -144 5 -27 14 -104 20 -170 14 -162 30 -241 52 -265 44 -47 53 -20
37 114 -8 61 -14 115 -14 120 0 5 28 10 63 12 35 2 69 7 75 12 7 6 23 12 37
14 19 2 25 9 25 28 0 22 -5 25 -44 28 -24 2 -49 -2 -54 -7 -6 -6 -33 -11 -59
-11 -41 0 -48 3 -52 23 -10 45 -36 184 -36 189 0 3 30 8 66 11 36 2 71 10 77
16 6 6 28 11 48 11 42 0 69 21 69 54 0 42 -41 62 -59 28z"/>
</g>
</svg>
