<?xml version="1.0" standalone="no"?>
<!DOCTYPE svg PUBLIC "-//W3C//DTD SVG 20010904//EN"
 "http://www.w3.org/TR/2001/REC-SVG-20010904/DTD/svg10.dtd">
<svg version="1.0" xmlns="http://www.w3.org/2000/svg"
 width="72.000000pt" height="111.000000pt" viewBox="0 0 72.000000 111.000000"
 preserveAspectRatio="xMidYMid meet">
<metadata>
Created by potrace 1.16, written by Peter Selinger 2001-2019
</metadata>
<g transform="translate(0.000000,111.000000) scale(0.100000,-0.100000)"
fill="#000000" stroke="none">
<path d="M440 909 c-19 -6 -82 -13 -140 -17 -98 -7 -105 -8 -108 -29 -5 -34
31 -63 78 -63 l40 0 1 -62 c1 -35 2 -108 3 -163 1 -55 6 -140 10 -189 l9 -89
-69 7 c-86 8 -106 -2 -84 -41 20 -36 67 -47 165 -38 44 4 100 8 125 9 40 1 45
4 48 26 4 38 -12 54 -53 53 -23 -1 -38 4 -44 15 -15 27 -36 248 -46 477 0 5
20 13 45 18 25 4 54 10 66 12 27 6 49 52 33 71 -13 16 -28 16 -79 3z"/>
</g>
</svg>
