<?xml version="1.0" standalone="no"?>
<!DOCTYPE svg PUBLIC "-//W3C//DTD SVG 20010904//EN"
 "http://www.w3.org/TR/2001/REC-SVG-20010904/DTD/svg10.dtd">
<svg version="1.0" xmlns="http://www.w3.org/2000/svg"
 width="77.000000pt" height="111.000000pt" viewBox="0 0 77.000000 111.000000"
 preserveAspectRatio="xMidYMid meet">
<metadata>
Created by potrace 1.16, written by Peter Selinger 2001-2019
</metadata>
<g transform="translate(0.000000,111.000000) scale(0.100000,-0.100000)"
fill="#000000" stroke="none">
<path d="M385 879 c-33 -5 -89 -8 -125 -6 -64 2 -65 1 -68 -25 -4 -32 27 -53
63 -44 15 4 25 1 29 -9 4 -11 13 -14 30 -9 21 5 24 2 29 -33 17 -120 59 -264
82 -283 8 -7 15 -21 15 -32 0 -11 7 -51 16 -88 16 -64 16 -71 0 -112 -32 -79
-58 -93 -118 -62 -63 33 -81 59 -87 127 -2 14 -38 7 -55 -12 -17 -19 -17 -22
-1 -63 12 -31 35 -58 82 -95 60 -48 70 -53 116 -53 44 0 54 4 87 38 53 53 66
104 50 206 -6 44 -27 121 -45 170 -35 96 -65 198 -73 255 -6 44 25 70 86 71
35 0 42 3 42 19 0 54 -20 59 -155 40z"/>
</g>
</svg>
