<?xml version="1.0" standalone="no"?>
<!DOCTYPE svg PUBLIC "-//W3C//DTD SVG 20010904//EN"
 "http://www.w3.org/TR/2001/REC-SVG-20010904/DTD/svg10.dtd">
<svg version="1.0" xmlns="http://www.w3.org/2000/svg"
 width="78.000000pt" height="111.000000pt" viewBox="0 0 78.000000 111.000000"
 preserveAspectRatio="xMidYMid meet">
<metadata>
Created by potrace 1.16, written by Peter Selinger 2001-2019
</metadata>
<g transform="translate(0.000000,111.000000) scale(0.100000,-0.100000)"
fill="#000000" stroke="none">
<path d="M198 833 c-9 -43 4 -719 14 -730 16 -20 46 -15 59 9 7 13 11 50 10
83 -6 158 -6 188 5 192 15 5 154 -117 154 -135 0 -13 146 -132 162 -132 15 0
48 34 48 50 0 6 -5 10 -11 10 -20 0 -290 283 -285 297 3 7 21 23 41 34 19 12
35 27 35 35 0 8 10 14 25 14 15 0 25 6 25 14 0 7 7 19 15 26 22 18 18 30 -10
30 -28 0 -65 -20 -106 -57 -20 -19 -36 -24 -65 -21 -36 3 -39 5 -41 36 -3 61
-24 246 -29 254 -9 15 -43 8 -46 -9z"/>
</g>
</svg>
