<?xml version="1.0" standalone="no"?>
<!DOCTYPE svg PUBLIC "-//W3C//DTD SVG 20010904//EN"
 "http://www.w3.org/TR/2001/REC-SVG-20010904/DTD/svg10.dtd">
<svg version="1.0" xmlns="http://www.w3.org/2000/svg"
 width="69.000000pt" height="111.000000pt" viewBox="0 0 69.000000 111.000000"
 preserveAspectRatio="xMidYMid meet">
<metadata>
Created by potrace 1.16, written by Peter Selinger 2001-2019
</metadata>
<g transform="translate(0.000000,111.000000) scale(0.100000,-0.100000)"
fill="#000000" stroke="none">
<path d="M240 755 c-10 -26 -18 -455 -11 -575 6 -104 44 -130 142 -94 28 10
61 14 92 10 42 -4 51 -2 78 22 20 18 28 33 24 44 -7 19 -48 18 -178 -4 -42 -7
-71 -8 -77 -2 -5 5 -11 142 -14 308 -3 238 -6 300 -17 307 -22 14 -29 11 -39
-16z"/>
</g>
</svg>
