<?xml version="1.0" standalone="no"?>
<!DOCTYPE svg PUBLIC "-//W3C//DTD SVG 20010904//EN"
 "http://www.w3.org/TR/2001/REC-SVG-20010904/DTD/svg10.dtd">
<svg version="1.0" xmlns="http://www.w3.org/2000/svg"
 width="94.000000pt" height="112.000000pt" viewBox="0 0 94.000000 112.000000"
 preserveAspectRatio="xMidYMid meet">
<metadata>
Created by potrace 1.16, written by Peter Selinger 2001-2019
</metadata>
<g transform="translate(0.000000,112.000000) scale(0.100000,-0.100000)"
fill="#000000" stroke="none">
<path d="M650 770 c-19 -4 -26 -15 -32 -45 -5 -22 -12 -49 -17 -60 -5 -11 -21
-46 -35 -77 -14 -32 -27 -58 -30 -58 -6 0 -46 88 -46 100 0 19 -67 120 -82
126 -26 8 -58 -5 -58 -23 0 -9 -4 -30 -10 -47 -5 -17 -23 -71 -39 -121 -16
-49 -47 -135 -70 -190 -23 -55 -41 -108 -41 -117 0 -10 -4 -18 -10 -18 -5 0
-10 -11 -10 -25 0 -20 5 -25 24 -25 26 0 58 36 71 80 4 14 12 34 19 45 17 28
75 213 82 258 4 29 9 37 22 35 21 -4 88 -124 108 -196 17 -59 28 -68 66 -53
18 7 31 23 41 53 38 111 67 207 67 227 0 45 18 17 48 -76 34 -103 82 -313 82
-360 0 -16 7 -37 15 -47 13 -17 18 -18 41 -7 29 13 29 15 4 161 -6 30 -14 82
-19 115 -9 58 -56 210 -71 230 -4 6 -13 26 -19 46 -18 56 -54 81 -101 69z"/>
</g>
</svg>
