<?xml version="1.0" standalone="no"?>
<!DOCTYPE svg PUBLIC "-//W3C//DTD SVG 20010904//EN"
 "http://www.w3.org/TR/2001/REC-SVG-20010904/DTD/svg10.dtd">
<svg version="1.0" xmlns="http://www.w3.org/2000/svg"
 width="70.000000pt" height="111.000000pt" viewBox="0 0 70.000000 111.000000"
 preserveAspectRatio="xMidYMid meet">
<metadata>
Created by potrace 1.16, written by Peter Selinger 2001-2019
</metadata>
<g transform="translate(0.000000,111.000000) scale(0.100000,-0.100000)"
fill="#000000" stroke="none">
<path d="M542 917 c-5 -7 -13 -70 -17 -142 -3 -71 -10 -143 -15 -160 -5 -16
-14 -57 -20 -90 -7 -33 -14 -70 -16 -82 -5 -27 -24 -31 -24 -5 0 9 -6 28 -13
42 -7 14 -23 59 -36 100 -12 41 -27 89 -33 105 -6 17 -18 55 -27 85 -9 30 -20
62 -26 71 -14 23 -48 31 -69 16 -16 -12 -19 -42 -15 -147 0 -8 -6 -33 -15 -55
-8 -22 -15 -73 -16 -113 0 -40 -7 -123 -16 -184 -12 -79 -13 -113 -5 -121 31
-31 82 131 96 311 4 45 11 82 15 82 4 0 13 -15 20 -32 6 -18 20 -51 30 -73 10
-22 24 -62 31 -90 7 -27 17 -59 23 -70 6 -11 12 -31 13 -44 3 -29 10 -37 45
-45 44 -10 73 31 93 133 31 155 34 184 40 300 3 64 8 132 10 152 4 31 1 39
-19 53 -19 12 -26 13 -34 3z"/>
</g>
</svg>
