<?xml version="1.0" standalone="no"?>
<!DOCTYPE svg PUBLIC "-//W3C//DTD SVG 20010904//EN"
 "http://www.w3.org/TR/2001/REC-SVG-20010904/DTD/svg10.dtd">
<svg version="1.0" xmlns="http://www.w3.org/2000/svg"
 width="70.000000pt" height="111.000000pt" viewBox="0 0 70.000000 111.000000"
 preserveAspectRatio="xMidYMid meet">
<metadata>
Created by potrace 1.16, written by Peter Selinger 2001-2019
</metadata>
<g transform="translate(0.000000,111.000000) scale(0.100000,-0.100000)"
fill="#000000" stroke="none">
<path d="M333 877 c-4 -7 -24 -23 -44 -35 -56 -34 -127 -126 -146 -191 -10
-35 -17 -92 -17 -151 0 -104 14 -144 72 -196 62 -56 111 -64 182 -31 53 25 65
37 88 97 85 217 84 209 46 296 -39 91 -85 177 -107 202 -23 24 -62 29 -74 9z
m81 -182 c41 -88 48 -111 42 -143 -9 -62 -71 -186 -106 -215 -32 -28 -32 -28
-64 -9 -34 20 -73 72 -83 111 -9 37 15 188 37 231 11 21 32 47 48 58 15 11 34
32 42 46 7 14 18 26 25 26 6 0 33 -47 59 -105z"/>
</g>
</svg>
