<?xml version="1.0" standalone="no"?>
<!DOCTYPE svg PUBLIC "-//W3C//DTD SVG 20010904//EN"
 "http://www.w3.org/TR/2001/REC-SVG-20010904/DTD/svg10.dtd">
<svg version="1.0" xmlns="http://www.w3.org/2000/svg"
 width="71.000000pt" height="111.000000pt" viewBox="0 0 71.000000 111.000000"
 preserveAspectRatio="xMidYMid meet">
<metadata>
Created by potrace 1.16, written by Peter Selinger 2001-2019
</metadata>
<g transform="translate(0.000000,111.000000) scale(0.100000,-0.100000)"
fill="#000000" stroke="none">
<path d="M370 933 c-36 -14 -100 -78 -119 -118 -25 -54 -27 -125 -6 -227 10
-45 15 -114 14 -179 -1 -58 1 -111 5 -117 11 -18 54 -14 64 5 6 9 7 43 5 75
-6 55 -5 58 21 68 15 5 38 10 51 10 27 0 127 64 167 106 35 37 51 101 50 193
-1 71 -2 75 -39 114 -61 63 -152 93 -213 70z m107 -85 c75 -32 94 -112 48
-197 -35 -64 -108 -114 -161 -109 l-39 3 -14 110 -14 109 52 48 c55 50 79 57
128 36z"/>
</g>
</svg>
