<?xml version="1.0" standalone="no"?>
<!DOCTYPE svg PUBLIC "-//W3C//DTD SVG 20010904//EN"
 "http://www.w3.org/TR/2001/REC-SVG-20010904/DTD/svg10.dtd">
<svg version="1.0" xmlns="http://www.w3.org/2000/svg"
 width="81.000000pt" height="93.000000pt" viewBox="0 0 81.000000 93.000000"
 preserveAspectRatio="xMidYMid meet">
<metadata>
Created by potrace 1.16, written by Peter Selinger 2001-2019
</metadata>
<g transform="translate(0.000000,93.000000) scale(0.100000,-0.100000)"
fill="#000000" stroke="none">
<path d="M390 781 c-114 -17 -200 -104 -200 -203 0 -24 14 -108 31 -188 17
-80 39 -192 48 -250 15 -97 18 -105 44 -120 26 -14 29 -14 43 4 18 25 18 68
-1 130 -17 57 -19 96 -5 96 6 0 10 -7 10 -15 0 -8 12 -22 28 -32 15 -9 32 -21
37 -27 10 -11 100 -66 172 -106 54 -30 96 -22 91 17 -2 21 -16 34 -70 62 -126
67 -198 123 -198 151 0 9 9 25 20 35 11 10 20 24 20 31 0 7 6 17 14 21 22 14
64 134 77 225 11 77 11 88 -4 112 -16 24 -86 68 -104 65 -4 -1 -28 -5 -53 -8z
m80 -86 c13 -15 10 -58 -8 -155 -13 -70 -99 -190 -136 -190 -19 0 -24 10 -39
84 -31 150 -20 196 61 247 50 32 102 38 122 14z"/>
</g>
</svg>
