<?xml version="1.0" standalone="no"?>
<!DOCTYPE svg PUBLIC "-//W3C//DTD SVG 20010904//EN"
 "http://www.w3.org/TR/2001/REC-SVG-20010904/DTD/svg10.dtd">
<svg version="1.0" xmlns="http://www.w3.org/2000/svg"
 width="78.000000pt" height="93.000000pt" viewBox="0 0 78.000000 93.000000"
 preserveAspectRatio="xMidYMid meet">
<metadata>
Created by potrace 1.16, written by Peter Selinger 2001-2019
</metadata>
<g transform="translate(0.000000,93.000000) scale(0.100000,-0.100000)"
fill="#000000" stroke="none">
<path d="M480 800 c-14 -4 -84 -8 -156 -9 -110 -1 -135 -4 -153 -18 -18 -16
-19 -21 -8 -43 11 -21 18 -24 47 -20 19 2 58 4 85 5 l50 0 12 -125 c6 -69 12
-205 13 -303 l2 -178 24 -11 c21 -10 28 -8 43 8 17 18 18 31 10 194 -4 96 -15
227 -24 290 -8 63 -15 118 -15 121 0 3 41 12 90 20 l90 13 0 33 c0 32 -1 33
-42 32 -24 -1 -54 -5 -68 -9z"/>
</g>
</svg>
