<?xml version="1.0" standalone="no"?>
<!DOCTYPE svg PUBLIC "-//W3C//DTD SVG 20010904//EN"
 "http://www.w3.org/TR/2001/REC-SVG-20010904/DTD/svg10.dtd">
<svg version="1.0" xmlns="http://www.w3.org/2000/svg"
 width="82.000000pt" height="93.000000pt" viewBox="0 0 82.000000 93.000000"
 preserveAspectRatio="xMidYMid meet">
<metadata>
Created by potrace 1.16, written by Peter Selinger 2001-2019
</metadata>
<g transform="translate(0.000000,93.000000) scale(0.100000,-0.100000)"
fill="#000000" stroke="none">
<path d="M173 803 c-7 -2 -13 -16 -13 -30 0 -37 64 -160 109 -211 22 -24 49
-63 61 -87 19 -37 20 -46 9 -66 -14 -27 -61 -89 -100 -134 -44 -50 -62 -90
-55 -119 5 -19 13 -26 30 -26 35 0 72 36 141 134 33 47 65 85 71 86 13 0 42
-32 75 -81 23 -34 79 -103 126 -155 12 -13 34 -40 49 -59 21 -28 33 -35 53
-33 37 4 42 54 9 83 -14 11 -35 38 -48 60 -13 22 -34 52 -48 67 -13 14 -21 31
-18 37 4 6 4 11 -1 11 -4 0 -20 19 -35 43 -15 23 -43 58 -62 76 -44 43 -48 85
-11 129 15 18 25 42 25 60 0 18 7 35 16 40 23 13 36 102 17 109 -21 8 -57 -32
-106 -117 -44 -78 -63 -94 -74 -63 -3 10 -25 39 -49 64 -23 25 -53 71 -67 100
-14 30 -31 60 -38 66 -19 14 -51 22 -66 16z"/>
</g>
</svg>
