<?xml version="1.0" standalone="no"?>
<!DOCTYPE svg PUBLIC "-//W3C//DTD SVG 20010904//EN"
 "http://www.w3.org/TR/2001/REC-SVG-20010904/DTD/svg10.dtd">
<svg version="1.0" xmlns="http://www.w3.org/2000/svg"
 width="72.000000pt" height="107.000000pt" viewBox="0 0 72.000000 107.000000"
 preserveAspectRatio="xMidYMid meet">
<metadata>
Created by potrace 1.16, written by Peter Selinger 2001-2019
</metadata>
<g transform="translate(0.000000,107.000000) scale(0.100000,-0.100000)"
fill="#000000" stroke="none">
<path d="M522 958 c-5 -7 -12 -26 -15 -43 -6 -35 -25 -133 -37 -190 -18 -83
-25 -106 -35 -108 -6 0 -31 42 -58 95 -41 85 -51 97 -78 103 -21 5 -36 3 -46
-7 -12 -13 -11 -20 7 -51 12 -21 25 -37 30 -37 4 0 10 -20 13 -44 7 -47 38
-112 82 -170 l27 -36 -16 -72 c-9 -40 -20 -101 -26 -136 -5 -35 -19 -79 -30
-97 -33 -53 -21 -75 40 -75 43 0 50 3 54 23 3 12 11 54 20 92 8 39 20 97 26
130 7 33 21 92 32 130 12 39 22 91 23 116 1 25 5 51 10 59 10 16 29 180 27
235 -3 90 -5 95 -22 95 -10 0 -22 -6 -28 -12z"/>
</g>
</svg>
