<?xml version="1.0" standalone="no"?>
<!DOCTYPE svg PUBLIC "-//W3C//DTD SVG 20010904//EN"
 "http://www.w3.org/TR/2001/REC-SVG-20010904/DTD/svg10.dtd">
<svg version="1.0" xmlns="http://www.w3.org/2000/svg"
 width="115.000000pt" height="94.000000pt" viewBox="0 0 115.000000 94.000000"
 preserveAspectRatio="xMidYMid meet">
<metadata>
Created by potrace 1.16, written by Peter Selinger 2001-2019
</metadata>
<g transform="translate(0.000000,94.000000) scale(0.100000,-0.100000)"
fill="#000000" stroke="none">
<path d="M255 761 c-7 -13 21 -51 38 -51 6 0 18 -7 28 -16 14 -13 40 -16 126
-15 59 0 119 2 133 3 20 2 25 -1 23 -17 -2 -27 -24 -85 -44 -116 -9 -13 -31
-60 -49 -102 -18 -43 -42 -89 -54 -103 -67 -81 -92 -106 -139 -137 -81 -54
-92 -70 -76 -106 24 -54 76 -65 258 -57 86 4 160 11 166 16 6 5 51 12 100 16
91 7 115 15 115 40 0 18 -151 19 -333 3 -73 -6 -138 -7 -158 -2 l-33 9 28 20
c103 71 140 123 249 344 77 155 91 206 64 229 -24 19 -118 35 -217 35 -52 1
-123 5 -156 10 -45 6 -63 5 -69 -3z"/>
</g>
</svg>
