<?xml version="1.0" standalone="no"?>
<!DOCTYPE svg PUBLIC "-//W3C//DTD SVG 20010904//EN"
 "http://www.w3.org/TR/2001/REC-SVG-20010904/DTD/svg10.dtd">
<svg version="1.0" xmlns="http://www.w3.org/2000/svg"
 width="78.000000pt" height="86.000000pt" viewBox="0 0 78.000000 86.000000"
 preserveAspectRatio="xMidYMid meet">
<metadata>
Created by potrace 1.16, written by Peter Selinger 2001-2019
</metadata>
<g transform="translate(0.000000,86.000000) scale(0.100000,-0.100000)"
fill="#000000" stroke="none">
<path d="M285 472 c-22 -14 -40 -42 -70 -113 -35 -82 -40 -102 -38 -164 1 -70
2 -70 47 -112 102 -92 287 -97 401 -11 54 40 57 67 15 109 -31 32 -50 31 -50
-1 0 -37 -14 -53 -74 -81 -76 -36 -142 -38 -196 -8 -21 12 -43 32 -50 44 -18
33 -7 110 25 185 34 80 63 119 92 126 28 7 29 20 4 34 -30 15 -73 12 -106 -8z"/>
</g>
</svg>
