<?xml version="1.0" standalone="no"?>
<!DOCTYPE svg PUBLIC "-//W3C//DTD SVG 20010904//EN"
 "http://www.w3.org/TR/2001/REC-SVG-20010904/DTD/svg10.dtd">
<svg version="1.0" xmlns="http://www.w3.org/2000/svg"
 width="142.000000pt" height="206.000000pt" viewBox="0 0 142.000000 206.000000"
 preserveAspectRatio="xMidYMid meet">
<metadata>
Created by potrace 1.16, written by Peter Selinger 2001-2019
</metadata>
<g transform="translate(0.000000,206.000000) scale(0.100000,-0.100000)"
fill="#000000" stroke="none">
<path d="M638 1523 c-15 -22 -28 -59 -31 -88 -3 -27 -13 -65 -22 -83 -9 -17
-21 -61 -26 -97 -5 -35 -18 -79 -29 -97 -11 -18 -20 -45 -20 -59 0 -14 -11
-47 -25 -73 -14 -26 -25 -60 -25 -76 0 -16 -8 -51 -19 -77 -10 -26 -21 -67
-24 -89 -4 -23 -16 -61 -27 -85 -13 -30 -20 -66 -20 -112 0 -64 1 -68 21 -65
26 4 55 75 69 168 5 36 19 83 30 105 11 21 20 46 20 55 0 26 22 40 63 40 21 0
67 7 101 17 86 22 112 14 127 -40 6 -23 20 -59 30 -79 10 -20 19 -53 19 -72 0
-20 12 -65 27 -101 22 -54 31 -65 47 -63 19 3 21 10 20 73 0 49 -7 84 -22 117
-12 26 -22 63 -22 82 0 20 -11 70 -25 112 -14 42 -25 90 -25 106 0 15 -9 54
-21 86 -12 31 -24 96 -29 143 -5 54 -15 100 -29 127 -11 23 -21 52 -21 65 0
33 -41 91 -66 95 -14 2 -28 -8 -46 -35z m87 -236 c16 -65 25 -124 25 -177 0
-72 -2 -81 -22 -94 -33 -20 -135 -31 -154 -15 -17 14 -10 64 13 90 8 10 18 45
23 79 5 34 15 72 23 84 9 13 18 45 22 72 8 52 23 80 36 67 5 -5 20 -52 34
-106z"/>
</g>
</svg>
