<?xml version="1.0" standalone="no"?>
<!DOCTYPE svg PUBLIC "-//W3C//DTD SVG 20010904//EN"
 "http://www.w3.org/TR/2001/REC-SVG-20010904/DTD/svg10.dtd">
<svg version="1.0" xmlns="http://www.w3.org/2000/svg"
 width="148.000000pt" height="222.000000pt" viewBox="0 0 148.000000 222.000000"
 preserveAspectRatio="xMidYMid meet">
<metadata>
Created by potrace 1.16, written by Peter Selinger 2001-2019
</metadata>
<g transform="translate(0.000000,222.000000) scale(0.100000,-0.100000)"
fill="#000000" stroke="none">
<path d="M697 1745 c-9 -8 -18 -34 -21 -57 -7 -45 -13 -69 -66 -253 -17 -60
-35 -130 -40 -155 -5 -25 -22 -83 -38 -130 -16 -47 -33 -101 -37 -120 -4 -19
-11 -40 -16 -46 -5 -6 -25 -66 -45 -135 -20 -68 -43 -146 -51 -174 -8 -27 -20
-72 -27 -100 -7 -27 -19 -63 -28 -80 -20 -41 -42 -167 -34 -199 6 -26 44 -44
66 -31 14 9 40 72 40 99 0 12 4 26 9 31 8 9 52 168 71 259 4 23 18 69 30 103
l23 62 43 -6 c26 -3 61 0 91 10 176 56 273 47 273 -25 0 -13 18 -95 41 -183
22 -88 45 -185 50 -215 15 -85 38 -111 83 -94 19 7 22 93 6 159 -5 22 -14 69
-20 103 -6 35 -19 89 -30 120 -11 32 -24 77 -29 102 -11 50 -24 108 -52 225
-10 44 -30 152 -44 240 -25 153 -34 192 -57 260 -6 17 -18 57 -29 90 -30 100
-45 137 -60 146 -22 14 -86 10 -102 -6z m82 -212 c10 -37 24 -99 55 -238 9
-38 16 -83 16 -99 0 -16 7 -64 16 -108 9 -43 14 -85 11 -92 -3 -8 -31 -15 -79
-19 -40 -3 -101 -15 -135 -27 -35 -12 -67 -19 -73 -15 -14 9 -13 51 3 88 42
99 85 257 112 407 9 52 21 105 25 118 14 34 38 27 49 -15z"/>
</g>
</svg>
