<?xml version="1.0" standalone="no"?>
<!DOCTYPE svg PUBLIC "-//W3C//DTD SVG 20010904//EN"
 "http://www.w3.org/TR/2001/REC-SVG-20010904/DTD/svg10.dtd">
<svg version="1.0" xmlns="http://www.w3.org/2000/svg"
 width="79.000000pt" height="87.000000pt" viewBox="0 0 79.000000 87.000000"
 preserveAspectRatio="xMidYMid meet">
<metadata>
Created by potrace 1.16, written by Peter Selinger 2001-2019
</metadata>
<g transform="translate(0.000000,87.000000) scale(0.100000,-0.100000)"
fill="#000000" stroke="none">
<path d="M418 806 c-19 -14 -25 -61 -9 -70 5 -3 12 -27 16 -53 4 -27 15 -71
25 -100 22 -62 17 -68 -55 -76 -74 -8 -104 -25 -131 -76 -14 -26 -34 -61 -46
-80 -25 -39 -57 -151 -58 -198 0 -29 5 -35 50 -58 67 -34 136 -34 190 0 44 28
110 106 130 154 14 36 43 39 48 5 2 -11 27 -46 57 -78 41 -43 60 -57 77 -54
40 5 36 52 -8 96 -60 60 -114 190 -139 332 -7 41 -18 91 -25 110 -19 50 -49
122 -59 140 -11 20 -42 23 -63 6z m37 -360 c15 -11 17 -22 12 -68 -3 -30 -17
-77 -31 -104 -30 -59 -99 -132 -131 -140 -30 -7 -65 11 -65 34 0 30 46 138 79
187 17 25 31 50 31 55 0 8 65 48 81 50 3 0 13 -6 24 -14z"/>
</g>
</svg>
