<?xml version="1.0" standalone="no"?>
<!DOCTYPE svg PUBLIC "-//W3C//DTD SVG 20010904//EN"
 "http://www.w3.org/TR/2001/REC-SVG-20010904/DTD/svg10.dtd">
<svg version="1.0" xmlns="http://www.w3.org/2000/svg"
 width="95.000000pt" height="117.000000pt" viewBox="0 0 95.000000 117.000000"
 preserveAspectRatio="xMidYMid meet">
<metadata>
Created by potrace 1.16, written by Peter Selinger 2001-2019
</metadata>
<g transform="translate(0.000000,117.000000) scale(0.100000,-0.100000)"
fill="#000000" stroke="none">
<path d="M385 1043 c-34 -8 -114 -95 -147 -158 -29 -58 -30 -61 -20 -138 9
-74 30 -117 54 -117 6 0 21 -9 35 -20 29 -22 101 -27 135 -9 11 6 42 33 69 60
28 30 50 45 54 39 4 -6 9 -36 12 -68 2 -31 7 -64 10 -72 15 -44 -3 -314 -23
-346 -11 -19 -18 -21 -53 -14 -97 18 -214 81 -227 123 -10 34 -23 45 -43 40
-30 -8 -33 -43 -9 -90 19 -35 35 -48 108 -83 47 -24 93 -46 102 -51 27 -14
135 -11 171 5 26 10 36 23 45 55 7 23 10 45 8 50 -3 5 1 28 9 50 22 63 16 192
-17 391 -16 96 -31 191 -34 210 -13 89 -16 100 -28 100 -6 0 -27 11 -46 25
-27 20 -45 25 -89 24 -31 -1 -65 -3 -76 -6z m112 -145 c-13 -110 -23 -139 -67
-185 -42 -45 -83 -56 -108 -31 -18 18 -15 130 6 176 28 63 79 115 121 122 53
10 58 2 48 -82z"/>
</g>
</svg>
