<?xml version="1.0" standalone="no"?>
<!DOCTYPE svg PUBLIC "-//W3C//DTD SVG 20010904//EN"
 "http://www.w3.org/TR/2001/REC-SVG-20010904/DTD/svg10.dtd">
<svg version="1.0" xmlns="http://www.w3.org/2000/svg"
 width="77.000000pt" height="136.000000pt" viewBox="0 0 77.000000 136.000000"
 preserveAspectRatio="xMidYMid meet">
<metadata>
Created by potrace 1.16, written by Peter Selinger 2001-2019
</metadata>
<g transform="translate(0.000000,136.000000) scale(0.100000,-0.100000)"
fill="#000000" stroke="none">
<path d="M295 1146 c-21 -39 -21 -42 16 -51 20 -5 33 0 55 19 26 22 27 26 14
40 -8 8 -27 18 -41 21 -21 5 -28 1 -44 -29z"/>
<path d="M340 875 c0 -24 21 -106 40 -160 10 -27 30 -111 45 -185 15 -74 33
-146 40 -160 8 -15 13 -64 14 -120 1 -86 -1 -101 -27 -150 -27 -55 -28 -55
-72 -54 -75 1 -139 53 -170 137 -13 37 -49 34 -69 -7 -12 -27 -12 -33 10 -74
13 -24 43 -57 66 -73 40 -28 45 -29 166 -29 l125 0 21 33 c47 77 57 212 25
357 -9 41 -20 92 -24 113 -4 21 -15 46 -24 56 -9 10 -16 35 -16 57 0 22 -9 64
-21 94 -12 30 -25 78 -31 105 -5 28 -17 56 -26 63 -23 17 -72 16 -72 -3z"/>
</g>
</svg>
