<?xml version="1.0" standalone="no"?>
<!DOCTYPE svg PUBLIC "-//W3C//DTD SVG 20010904//EN"
 "http://www.w3.org/TR/2001/REC-SVG-20010904/DTD/svg10.dtd">
<svg version="1.0" xmlns="http://www.w3.org/2000/svg"
 width="82.000000pt" height="136.000000pt" viewBox="0 0 82.000000 136.000000"
 preserveAspectRatio="xMidYMid meet">
<metadata>
Created by potrace 1.16, written by Peter Selinger 2001-2019
</metadata>
<g transform="translate(0.000000,136.000000) scale(0.100000,-0.100000)"
fill="#000000" stroke="none">
<path d="M325 870 c-3 -5 -15 -10 -25 -10 -25 0 -79 -47 -92 -79 -17 -41 -11
-276 7 -312 17 -32 57 -39 90 -15 18 13 18 16 2 97 -32 157 -17 239 42 239 33
-1 73 -34 76 -64 2 -13 8 -33 14 -44 6 -11 11 -46 11 -77 0 -31 5 -65 10 -76
12 -22 47 -24 73 -4 16 12 18 27 16 122 -2 89 0 108 12 111 9 2 20 -11 28 -35
8 -21 17 -40 20 -43 4 -3 15 -50 25 -105 32 -177 29 -170 54 -173 19 -3 21 0
16 27 -6 27 -4 31 16 31 20 0 21 3 15 43 -3 23 -10 53 -15 67 -5 14 -14 52
-20 85 -13 67 -49 136 -89 171 -26 24 -79 32 -96 15 -6 -5 -26 -11 -45 -13
-26 -2 -35 1 -35 12 0 8 -7 20 -15 27 -18 15 -86 17 -95 3z"/>
</g>
</svg>
