<?xml version="1.0" standalone="no"?>
<!DOCTYPE svg PUBLIC "-//W3C//DTD SVG 20010904//EN"
 "http://www.w3.org/TR/2001/REC-SVG-20010904/DTD/svg10.dtd">
<svg version="1.0" xmlns="http://www.w3.org/2000/svg"
 width="77.000000pt" height="136.000000pt" viewBox="0 0 77.000000 136.000000"
 preserveAspectRatio="xMidYMid meet">
<metadata>
Created by potrace 1.16, written by Peter Selinger 2001-2019
</metadata>
<g transform="translate(0.000000,136.000000) scale(0.100000,-0.100000)"
fill="#000000" stroke="none">
<path d="M339 976 c-38 -13 -109 -63 -109 -76 0 -5 -13 -11 -30 -15 -35 -8
-60 -39 -60 -75 0 -14 7 -59 16 -100 8 -41 20 -100 26 -130 14 -79 24 -99 52
-106 44 -11 61 -2 58 31 -1 17 -4 91 -5 165 -2 131 -1 137 26 189 27 51 30 53
60 47 33 -7 96 -69 97 -95 0 -8 12 -44 27 -80 14 -36 33 -109 42 -161 16 -94
16 -95 46 -98 17 -1 37 2 45 8 13 9 11 13 -9 29 -23 18 -23 18 -2 24 31 8 27
49 -13 172 -40 120 -49 138 -95 195 -27 32 -116 92 -133 90 -2 -1 -19 -7 -39
-14z m-129 -156 c8 -5 10 -10 4 -10 -6 0 -16 -10 -22 -22 -10 -22 -11 -21 -11
10 -1 34 4 38 29 22z"/>
</g>
</svg>
