<?xml version="1.0" standalone="no"?>
<!DOCTYPE svg PUBLIC "-//W3C//DTD SVG 20010904//EN"
 "http://www.w3.org/TR/2001/REC-SVG-20010904/DTD/svg10.dtd">
<svg version="1.0" xmlns="http://www.w3.org/2000/svg"
 width="75.000000pt" height="136.000000pt" viewBox="0 0 75.000000 136.000000"
 preserveAspectRatio="xMidYMid meet">
<metadata>
Created by potrace 1.16, written by Peter Selinger 2001-2019
</metadata>
<g transform="translate(0.000000,136.000000) scale(0.100000,-0.100000)"
fill="#000000" stroke="none">
<path d="M290 827 c-14 -6 -34 -31 -45 -54 -11 -24 -25 -40 -32 -38 -7 2 -13
1 -13 -4 0 -4 -9 -19 -21 -32 -18 -21 -20 -32 -15 -88 7 -80 29 -118 91 -156
43 -27 56 -30 117 -27 59 2 75 7 116 35 26 19 62 53 81 77 29 38 32 50 28 87
-5 49 -47 96 -111 126 -22 9 -55 33 -73 52 -37 38 -77 45 -123 22z m71 -94 c8
-9 29 -22 48 -30 33 -14 45 -22 82 -55 27 -26 24 -38 -24 -92 -40 -46 -46 -49
-99 -54 -52 -4 -59 -2 -82 23 -20 21 -26 39 -26 72 0 47 8 69 47 121 27 36 35
39 54 15z"/>
</g>
</svg>
