<?xml version="1.0" standalone="no"?>
<!DOCTYPE svg PUBLIC "-//W3C//DTD SVG 20010904//EN"
 "http://www.w3.org/TR/2001/REC-SVG-20010904/DTD/svg10.dtd">
<svg version="1.0" xmlns="http://www.w3.org/2000/svg"
 width="72.000000pt" height="136.000000pt" viewBox="0 0 72.000000 136.000000"
 preserveAspectRatio="xMidYMid meet">
<metadata>
Created by potrace 1.16, written by Peter Selinger 2001-2019
</metadata>
<g transform="translate(0.000000,136.000000) scale(0.100000,-0.100000)"
fill="#000000" stroke="none">
<path d="M352 879 c-18 -6 -56 -32 -84 -59 -28 -27 -58 -50 -67 -52 -13 -3
-15 -17 -13 -83 4 -122 21 -323 33 -390 16 -87 22 -96 70 -91 22 2 42 6 45 9
3 3 0 49 -7 104 -19 150 -19 149 14 145 37 -4 137 25 161 46 61 54 85 202 47
285 -23 50 -44 70 -90 86 -39 13 -63 13 -109 0z m98 -93 c45 -66 36 -143 -24
-207 -25 -26 -34 -30 -75 -27 l-46 3 -9 48 c-7 39 -5 57 12 97 23 55 80 130
99 130 7 0 26 -20 43 -44z"/>
</g>
</svg>
