<?xml version="1.0" standalone="no"?>
<!DOCTYPE svg PUBLIC "-//W3C//DTD SVG 20010904//EN"
 "http://www.w3.org/TR/2001/REC-SVG-20010904/DTD/svg10.dtd">
<svg version="1.0" xmlns="http://www.w3.org/2000/svg"
 width="64.000000pt" height="104.000000pt" viewBox="0 0 64.000000 104.000000"
 preserveAspectRatio="xMidYMid meet">
<metadata>
Created by potrace 1.16, written by Peter Selinger 2001-2019
</metadata>
<g transform="translate(0.000000,104.000000) scale(0.100000,-0.100000)"
fill="#000000" stroke="none">
<path d="M300 897 c-20 -7 -59 -36 -92 -71 -67 -68 -71 -90 -32 -159 21 -39
38 -52 107 -88 45 -23 88 -46 95 -51 17 -14 15 -41 -5 -83 -15 -31 -21 -35
-55 -35 -40 0 -83 21 -106 52 -17 23 -68 24 -76 1 -8 -19 17 -57 56 -86 35
-26 159 -37 215 -19 54 17 78 63 68 130 -8 57 -40 88 -133 132 -69 32 -102 67
-102 107 0 23 73 103 94 103 30 0 76 30 76 49 0 32 -44 39 -110 18z"/>
</g>
</svg>
