<?xml version="1.0" standalone="no"?>
<!DOCTYPE svg PUBLIC "-//W3C//DTD SVG 20010904//EN"
 "http://www.w3.org/TR/2001/REC-SVG-20010904/DTD/svg10.dtd">
<svg version="1.0" xmlns="http://www.w3.org/2000/svg"
 width="66.000000pt" height="104.000000pt" viewBox="0 0 66.000000 104.000000"
 preserveAspectRatio="xMidYMid meet">
<metadata>
Created by potrace 1.16, written by Peter Selinger 2001-2019
</metadata>
<g transform="translate(0.000000,104.000000) scale(0.100000,-0.100000)"
fill="#000000" stroke="none">
<path d="M283 965 c-20 -14 -22 -22 -17 -83 3 -37 10 -84 16 -105 15 -49 5
-58 -69 -66 -75 -8 -83 -31 -21 -54 24 -10 56 -17 70 -17 23 0 28 -5 32 -32 2
-18 10 -64 16 -103 7 -38 15 -90 18 -114 6 -39 11 -46 37 -53 46 -12 68 -1 61
30 -4 15 -11 59 -16 99 -6 40 -14 93 -19 119 -12 62 -7 71 42 79 49 8 87 30
87 50 0 22 -19 29 -84 29 -71 1 -73 5 -75 130 -1 63 -5 82 -18 92 -23 17 -34
17 -60 -1z"/>
</g>
</svg>
