<?xml version="1.0" standalone="no"?>
<!DOCTYPE svg PUBLIC "-//W3C//DTD SVG 20010904//EN"
 "http://www.w3.org/TR/2001/REC-SVG-20010904/DTD/svg10.dtd">
<svg version="1.0" xmlns="http://www.w3.org/2000/svg"
 width="72.000000pt" height="104.000000pt" viewBox="0 0 72.000000 104.000000"
 preserveAspectRatio="xMidYMid meet">
<metadata>
Created by potrace 1.16, written by Peter Selinger 2001-2019
</metadata>
<g transform="translate(0.000000,104.000000) scale(0.100000,-0.100000)"
fill="#000000" stroke="none">
<path d="M103 902 c-19 -12 -27 -139 -13 -192 7 -25 12 -57 11 -73 -3 -30 36
-101 82 -150 26 -27 32 -29 83 -25 62 5 102 29 123 74 37 79 36 78 88 28 44
-43 50 -46 90 -41 49 5 83 30 83 61 1 12 9 46 20 76 34 98 21 201 -27 208 -31
5 -42 -23 -53 -130 -8 -90 -25 -158 -38 -158 -20 0 -52 73 -63 145 -15 98 -31
127 -66 123 -32 -4 -38 -15 -52 -98 -19 -107 -90 -234 -121 -215 -6 3 -23 30
-37 58 -25 47 -28 63 -30 177 -1 69 -3 128 -3 133 0 9 -62 9 -77 -1z"/>
</g>
</svg>
