<?xml version="1.0" standalone="no"?>
<!DOCTYPE svg PUBLIC "-//W3C//DTD SVG 20010904//EN"
 "http://www.w3.org/TR/2001/REC-SVG-20010904/DTD/svg10.dtd">
<svg version="1.0" xmlns="http://www.w3.org/2000/svg"
 width="93.000000pt" height="117.000000pt" viewBox="0 0 93.000000 117.000000"
 preserveAspectRatio="xMidYMid meet">
<metadata>
Created by potrace 1.16, written by Peter Selinger 2001-2019
</metadata>
<g transform="translate(0.000000,117.000000) scale(0.100000,-0.100000)"
fill="#000000" stroke="none">
<path d="M464 970 c-16 -6 -26 -31 -48 -121 -15 -63 -31 -127 -36 -144 -6 -16
-35 -111 -66 -210 -30 -99 -60 -198 -66 -220 -5 -22 -17 -56 -25 -76 -8 -19
-15 -58 -16 -85 -2 -46 0 -49 23 -49 27 0 29 7 75 180 39 147 40 150 61 148
10 -1 48 5 84 13 86 20 144 16 148 -11 10 -71 67 -292 78 -304 7 -7 20 -11 29
-7 14 5 16 15 10 59 -7 54 -25 134 -50 227 -20 70 -51 224 -65 315 -14 88 -66
260 -86 280 -17 17 -20 17 -50 5z m48 -186 c9 -38 22 -100 28 -139 6 -38 13
-86 16 -105 l6 -36 -63 -11 c-35 -6 -76 -14 -91 -18 -24 -6 -28 -4 -28 13 0
11 7 35 15 55 17 40 50 165 59 222 19 119 31 123 58 19z"/>
</g>
</svg>
