<?xml version="1.0" standalone="no"?>
<!DOCTYPE svg PUBLIC "-//W3C//DTD SVG 20010904//EN"
 "http://www.w3.org/TR/2001/REC-SVG-20010904/DTD/svg10.dtd">
<svg version="1.0" xmlns="http://www.w3.org/2000/svg"
 width="86.000000pt" height="117.000000pt" viewBox="0 0 86.000000 117.000000"
 preserveAspectRatio="xMidYMid meet">
<metadata>
Created by potrace 1.16, written by Peter Selinger 2001-2019
</metadata>
<g transform="translate(0.000000,117.000000) scale(0.100000,-0.100000)"
fill="#000000" stroke="none">
<path d="M360 948 c-90 -96 -146 -308 -136 -516 6 -119 8 -126 41 -177 38 -61
56 -73 117 -81 49 -7 120 19 226 81 33 19 69 35 80 35 11 0 25 7 32 15 10 13
10 19 -5 35 -30 33 -83 26 -161 -20 -77 -45 -121 -60 -176 -60 -53 0 -77 38
-87 139 -20 193 32 403 123 499 24 26 28 36 20 50 -17 26 -49 26 -74 0z"/>
</g>
</svg>
