<?xml version="1.0" standalone="no"?>
<!DOCTYPE svg PUBLIC "-//W3C//DTD SVG 20010904//EN"
 "http://www.w3.org/TR/2001/REC-SVG-20010904/DTD/svg10.dtd">
<svg version="1.0" xmlns="http://www.w3.org/2000/svg"
 width="94.000000pt" height="117.000000pt" viewBox="0 0 94.000000 117.000000"
 preserveAspectRatio="xMidYMid meet">
<metadata>
Created by potrace 1.16, written by Peter Selinger 2001-2019
</metadata>
<g transform="translate(0.000000,117.000000) scale(0.100000,-0.100000)"
fill="#000000" stroke="none">
<path d="M415 960 c-22 -5 -53 -13 -68 -19 -16 -6 -46 -11 -67 -11 -59 0 -64
-17 -51 -169 6 -69 13 -165 16 -213 3 -48 13 -113 21 -143 7 -31 14 -64 14
-74 0 -20 52 -137 73 -163 16 -20 59 -38 91 -38 12 0 43 13 69 30 26 16 58 32
70 35 28 7 121 93 154 142 39 58 55 120 54 206 -1 44 -5 87 -10 96 -5 9 -12
40 -16 69 -4 29 -12 58 -18 65 -7 6 -21 30 -32 51 -31 61 -95 122 -140 135
-45 12 -101 13 -160 1z m212 -120 c50 -58 71 -102 83 -174 24 -147 3 -255 -63
-323 -18 -18 -78 -56 -134 -85 -98 -50 -103 -51 -122 -34 -10 9 -21 32 -23 49
-3 18 -14 66 -26 107 -11 41 -23 95 -26 120 -3 25 -12 92 -20 150 -23 163 -24
226 -6 221 21 -7 65 -4 130 8 30 5 81 8 112 7 55 -2 60 -5 95 -46z"/>
</g>
</svg>
