<?xml version="1.0" standalone="no"?>
<!DOCTYPE svg PUBLIC "-//W3C//DTD SVG 20010904//EN"
 "http://www.w3.org/TR/2001/REC-SVG-20010904/DTD/svg10.dtd">
<svg version="1.0" xmlns="http://www.w3.org/2000/svg"
 width="84.000000pt" height="96.000000pt" viewBox="0 0 84.000000 96.000000"
 preserveAspectRatio="xMidYMid meet">
<metadata>
Created by potrace 1.16, written by Peter Selinger 2001-2019
</metadata>
<g transform="translate(0.000000,96.000000) scale(0.100000,-0.100000)"
fill="#000000" stroke="none">
<path d="M272 854 c-31 -21 -102 -166 -102 -207 0 -18 -6 -39 -12 -46 -10 -9
-13 -54 -12 -161 1 -126 4 -152 19 -166 9 -10 28 -41 42 -70 37 -79 112 -132
200 -141 44 -5 59 -2 99 22 l47 28 31 -36 c66 -77 105 -28 47 59 -35 51 -36
55 -17 109 22 62 30 193 17 271 -18 103 -77 197 -158 249 -35 22 -62 47 -63
57 -1 42 -93 64 -138 32z m88 -66 c1 -15 17 -35 46 -58 73 -56 123 -112 135
-150 14 -47 8 -272 -8 -277 -6 -2 -24 16 -38 42 -27 45 -51 65 -78 65 -27 0
-26 -28 3 -69 16 -21 41 -63 56 -91 l27 -51 -20 -27 c-24 -33 -61 -47 -97 -38
-40 10 -109 78 -139 138 -24 48 -27 64 -27 164 0 74 5 130 16 165 63 207 63
209 100 209 18 0 24 -6 24 -22z"/>
</g>
</svg>
