<?xml version="1.0" standalone="no"?>
<!DOCTYPE svg PUBLIC "-//W3C//DTD SVG 20010904//EN"
 "http://www.w3.org/TR/2001/REC-SVG-20010904/DTD/svg10.dtd">
<svg version="1.0" xmlns="http://www.w3.org/2000/svg"
 width="72.000000pt" height="96.000000pt" viewBox="0 0 72.000000 96.000000"
 preserveAspectRatio="xMidYMid meet">
<metadata>
Created by potrace 1.16, written by Peter Selinger 2001-2019
</metadata>
<g transform="translate(0.000000,96.000000) scale(0.100000,-0.100000)"
fill="#000000" stroke="none">
<path d="M480 838 c0 -7 7 -26 16 -43 47 -85 14 -377 -57 -518 -31 -59 -47
-51 -111 58 -44 75 -75 198 -84 331 -3 56 -9 107 -14 113 -4 7 -20 11 -36 9
l-29 -3 -1 -110 c-2 -120 4 -159 17 -110 6 23 7 18 4 -19 -3 -27 0 -67 6 -90
17 -69 91 -209 133 -253 51 -55 86 -57 146 -11 113 87 178 460 107 608 -20 40
-26 45 -59 48 -26 2 -38 -1 -38 -10z"/>
</g>
</svg>
