<?xml version="1.0" standalone="no"?>
<!DOCTYPE svg PUBLIC "-//W3C//DTD SVG 20010904//EN"
 "http://www.w3.org/TR/2001/REC-SVG-20010904/DTD/svg10.dtd">
<svg version="1.0" xmlns="http://www.w3.org/2000/svg"
 width="90.000000pt" height="96.000000pt" viewBox="0 0 90.000000 96.000000"
 preserveAspectRatio="xMidYMid meet">
<metadata>
Created by potrace 1.16, written by Peter Selinger 2001-2019
</metadata>
<g transform="translate(0.000000,96.000000) scale(0.100000,-0.100000)"
fill="#000000" stroke="none">
<path d="M172 773 c-18 -4 -21 -9 -16 -25 3 -11 21 -75 39 -141 70 -255 83
-296 106 -338 31 -54 50 -66 86 -53 22 7 31 20 45 64 9 30 19 72 23 93 9 53
25 37 66 -66 58 -148 82 -172 126 -124 12 12 31 54 43 92 12 39 28 84 35 100
8 17 16 44 18 60 3 17 15 57 27 90 14 40 20 78 18 115 -3 49 -5 55 -27 58 -13
2 -27 0 -32 -5 -4 -4 -17 -46 -29 -93 -31 -123 -82 -280 -92 -280 -4 0 -8 9
-8 20 0 31 -45 109 -80 142 -38 34 -90 38 -117 8 -10 -10 -25 -41 -32 -67 -15
-54 -15 -53 -46 52 -10 33 -31 96 -46 141 -16 44 -29 92 -29 107 0 23 -33 60
-50 56 -3 -1 -15 -4 -28 -6z"/>
</g>
</svg>
