<?xml version="1.0" standalone="no"?>
<!DOCTYPE svg PUBLIC "-//W3C//DTD SVG 20010904//EN"
 "http://www.w3.org/TR/2001/REC-SVG-20010904/DTD/svg10.dtd">
<svg version="1.0" xmlns="http://www.w3.org/2000/svg"
 width="73.000000pt" height="96.000000pt" viewBox="0 0 73.000000 96.000000"
 preserveAspectRatio="xMidYMid meet">
<metadata>
Created by potrace 1.16, written by Peter Selinger 2001-2019
</metadata>
<g transform="translate(0.000000,96.000000) scale(0.100000,-0.100000)"
fill="#000000" stroke="none">
<path d="M128 904 c-13 -12 26 -102 82 -189 10 -16 19 -36 19 -44 2 -26 103
-216 132 -246 29 -31 40 -89 20 -111 -5 -5 -11 -51 -13 -102 -4 -83 -2 -94 14
-103 11 -6 29 -9 41 -7 20 3 22 10 28 93 3 50 13 148 22 220 14 115 21 255 18
383 -1 34 -5 42 -19 42 -37 0 -49 -30 -55 -140 -3 -58 -11 -123 -17 -145 -12
-38 -13 -38 -27 -20 -8 11 -26 45 -40 75 -14 30 -40 79 -60 108 -19 29 -41 72
-49 97 -23 65 -73 112 -96 89z"/>
</g>
</svg>
