<?xml version="1.0" standalone="no"?>
<!DOCTYPE svg PUBLIC "-//W3C//DTD SVG 20010904//EN"
 "http://www.w3.org/TR/2001/REC-SVG-20010904/DTD/svg10.dtd">
<svg version="1.0" xmlns="http://www.w3.org/2000/svg"
 width="123.000000pt" height="74.000000pt" viewBox="0 0 123.000000 74.000000"
 preserveAspectRatio="xMidYMid meet">
<metadata>
Created by potrace 1.16, written by Peter Selinger 2001-2019
</metadata>
<g transform="translate(0.000000,74.000000) scale(0.100000,-0.100000)"
fill="#000000" stroke="none">
<path d="M501 627 c-8 -11 -21 -13 -44 -8 -18 4 -56 7 -85 5 -83 -3 -111 -31
-156 -154 -41 -117 -42 -125 -17 -202 36 -105 48 -118 141 -155 90 -36 177
-27 223 24 20 23 55 111 68 174 6 27 16 49 22 48 11 0 68 -67 113 -133 40 -58
80 -88 118 -89 65 -2 67 18 6 70 -29 26 -72 72 -95 103 -22 30 -54 69 -70 87
-17 18 -55 79 -85 135 -53 99 -56 103 -91 106 -22 2 -40 -2 -48 -11z m-17 -55
c36 -7 41 -11 57 -57 23 -66 23 -114 -1 -203 -25 -93 -55 -148 -91 -163 -84
-34 -169 52 -170 175 -1 56 48 201 79 239 16 18 57 21 126 9z"/>
</g>
</svg>
