<?xml version="1.0" standalone="no"?>
<!DOCTYPE svg PUBLIC "-//W3C//DTD SVG 20010904//EN"
 "http://www.w3.org/TR/2001/REC-SVG-20010904/DTD/svg10.dtd">
<svg version="1.0" xmlns="http://www.w3.org/2000/svg"
 width="74.000000pt" height="87.000000pt" viewBox="0 0 74.000000 87.000000"
 preserveAspectRatio="xMidYMid meet">
<metadata>
Created by potrace 1.16, written by Peter Selinger 2001-2019
</metadata>
<g transform="translate(0.000000,87.000000) scale(0.100000,-0.100000)"
fill="#000000" stroke="none">
<path d="M147 794 c-21 -21 1 -194 46 -369 9 -33 19 -98 22 -145 9 -117 11
-125 48 -160 66 -62 175 -77 244 -33 44 27 122 115 128 145 29 128 -99 288
-230 288 -17 0 -53 -6 -81 -13 l-51 -13 -18 55 c-10 31 -23 99 -29 151 l-11
95 -30 3 c-17 2 -34 0 -38 -4z m323 -361 c83 -70 103 -158 51 -230 -81 -112
-153 -110 -186 5 -45 153 -13 245 87 251 9 1 31 -11 48 -26z"/>
</g>
</svg>
